<?xml version="1.0" encoding="UTF-8"?>
<svg id="Layer_1" data-name="Layer 1" xmlns="http://www.w3.org/2000/svg" viewBox="0 0 256.87 238.59">
  <defs>
    <style>
      .cls-1 {
        fill: #c5b1d6;
      }

      .cls-1, .cls-2 {
        stroke: #6652a2;
        stroke-miterlimit: 10;
        stroke-width: 7px;
      }

      .cls-3 {
        fill: #fff;
        stroke-width: 0px;
      }

      .cls-4 {
        fill: #2f2c80;
        font-family: Bauhaus93, 'Bauhaus 93';
        font-size: 30.02px;
      }

      .cls-2 {
        fill: #9383be;
      }
    </style>
  </defs>
  <circle class="cls-1" cx="180.62" cy="76.25" r="72.75"/>
  <path class="cls-2" d="M16.21,231.9l-10.15-11.47c-3.81-4.31-3.31-10.97,1.11-14.88l105.45-93.27c4.42-3.91,4.64,2.11,8.45,6.42l10.15,11.47c3.81,4.31,9.04,5.89,6.93,7.77l-104.73,92.64c-6.73,5.95-13.4,5.64-17.21,1.33Z"/>
  <text class="cls-4" transform="translate(147.65 114.77) rotate(-38.23) scale(1.06 1)"><tspan x="0" y="0">Xaspec</tspan></text>
  <path class="cls-3" d="M138.13,47.27c.63-1.57,9.39-22.37,29-25,4.71-.63,13.31-.66,14,2,.74,2.82-7.37,8.94-43,23Z"/>
</svg>